<?xml version="1.0" standalone="no"?>
<!DOCTYPE svg PUBLIC "-//W3C//DTD SVG 20010904//EN"
 "http://www.w3.org/TR/2001/REC-SVG-20010904/DTD/svg10.dtd">
<svg version="1.0" xmlns="http://www.w3.org/2000/svg"
 width="500.000000pt" height="500.000000pt" viewBox="0 0 500.000000 500.000000"
 preserveAspectRatio="xMidYMid meet">

<g transform="translate(0.000000,500.000000) scale(0.100000,-0.100000)"
fill="#000000" stroke="none">
<path d="M1881 3727 l-625 -462 633 -3 c348 -1 914 -1 1257 0 l625 3 -155 114
-156 115 0 278 0 278 -165 0 -164 0 -3 -154 -3 -154 -303 224 c-167 123 -306
224 -310 224 -4 -1 -288 -209 -631 -463z"/>
<path d="M2430 3051 c-5 -11 -10 -59 -10 -108 l-1 -88 -29 64 c-28 60 -31 63
-57 56 -39 -9 -116 -68 -146 -112 -33 -48 -57 -115 -57 -161 0 -24 -8 -44 -24
-61 -14 -15 -27 -42 -31 -63 -8 -41 -19 -35 120 -60 108 -20 556 -17 669 5 49
9 91 19 94 22 10 10 -19 86 -38 98 -12 7 -20 23 -20 38 0 15 -9 56 -20 92 -24
78 -84 149 -157 189 l-49 27 -37 -67 -37 -67 0 95 c0 61 -4 100 -12 108 -7 7
-40 12 -80 12 -56 0 -69 -3 -78 -19z"/>
<path d="M1251 2316 c24 -21 1246 -919 1255 -923 8 -3 296 204 641 459 l627
463 -188 3 -188 2 -419 -300 c-231 -165 -422 -300 -425 -300 -2 0 -193 135
-424 300 l-418 300 -233 0 c-128 0 -230 -2 -228 -4z"/>
</g>
</svg>
